<svg width="25" height="22" viewBox="0 0 25 22" fill="none" xmlns="http://www.w3.org/2000/svg">
<path fill-rule="evenodd" clip-rule="evenodd" d="M7.33398 1.83331C4.57256 1.83331 2.33398 4.07189 2.33398 6.83331V15.1666C2.33398 17.9281 4.57256 20.1666 7.33398 20.1666H17.334C20.0954 20.1666 22.334 17.9281 22.334 15.1666V6.83331C22.334 4.07189 20.0954 1.83331 17.334 1.83331H7.33398ZM18.334 6.41665C18.8863 6.41665 19.334 6.00624 19.334 5.49998C19.334 4.99372 18.8863 4.58331 18.334 4.58331C17.7817 4.58331 17.334 4.99372 17.334 5.49998C17.334 6.00624 17.7817 6.41665 18.334 6.41665ZM17.334 11C17.334 13.5313 15.0954 15.5833 12.334 15.5833C9.57256 15.5833 7.33398 13.5313 7.33398 11C7.33398 8.46867 9.57256 6.41665 12.334 6.41665C15.0954 6.41665 17.334 8.46867 17.334 11ZM12.334 13.75C13.9908 13.75 15.334 12.5188 15.334 11C15.334 9.4812 13.9908 8.24998 12.334 8.24998C10.6771 8.24998 9.33398 9.4812 9.33398 11C9.33398 12.5188 10.6771 13.75 12.334 13.75Z" fill="#B6B3EB"/>
</svg>
