<svg width="21" height="20" viewBox="0 0 21 20" fill="none" xmlns="http://www.w3.org/2000/svg">
<path d="M18.0219 12.4642V14.9196C18.0219 15.3556 17.8487 15.7738 17.5403 16.0822C17.232 16.3905 16.8138 16.5638 16.3777 16.5638H3.85315C3.41716 16.5638 2.99903 16.3906 2.6907 16.0823C2.38237 15.7741 2.20909 15.356 2.20898 14.92V5.08042C2.20893 4.86447 2.25142 4.65062 2.33402 4.4511C2.41662 4.25157 2.53772 4.07027 2.6904 3.91755C2.84308 3.76483 3.02435 3.64368 3.22386 3.56103C3.42337 3.47838 3.6372 3.43584 3.85315 3.43584H16.3777C16.5937 3.43584 16.8075 3.47838 17.007 3.56103C17.2065 3.64368 17.3878 3.76483 17.5405 3.91755C17.6932 4.07027 17.8143 4.25157 17.8969 4.4511C17.9795 4.65062 18.022 4.86447 18.0219 5.08042V7.62125" stroke="white" stroke-linecap="round" stroke-linejoin="round"/>
<path d="M17.9562 12.4688H13.6358C12.9924 12.4688 12.3754 12.2132 11.9205 11.7582C11.4655 11.3033 11.21 10.6863 11.21 10.0429C11.2099 9.72432 11.2726 9.40883 11.3945 9.11446C11.5164 8.8201 11.6951 8.55263 11.9203 8.32733C12.1456 8.10202 12.413 7.9233 12.7074 7.80136C13.0017 7.67943 13.3172 7.61667 13.6358 7.61667H17.9566C18.2337 7.61667 18.4587 7.84167 18.4587 8.11917V11.9667C18.4587 12.2438 18.2337 12.4688 17.9562 12.4688Z" stroke="white" stroke-linecap="round" stroke-linejoin="round"/>
<path d="M13.8585 11.1983C14.481 11.1983 14.9856 10.6937 14.9856 10.0713C14.9856 9.44878 14.481 8.94417 13.8585 8.94417C13.2361 8.94417 12.7314 9.44878 12.7314 10.0713C12.7314 10.6937 13.2361 11.1983 13.8585 11.1983Z" stroke="white" stroke-linecap="round" stroke-linejoin="round"/>
</svg>
