<svg width="21" height="21" viewBox="0 0 21 21" fill="none" xmlns="http://www.w3.org/2000/svg">
<path d="M12.4287 9.25362L12.3809 9.22807L9.71432 7.80229L9.66717 7.77708L9.62002 7.80229L6.95339 9.22807L6.90054 9.25632V9.31625V12.1483V12.2082L6.95339 12.2365L9.62002 13.6623L9.66721 13.6875L9.71439 13.6622L10.5676 13.2051C10.5673 13.2141 10.5671 13.2231 10.5671 13.2323C10.5671 13.4323 10.5814 13.6324 10.6098 13.8323C10.6344 14.0054 10.6697 14.1761 10.7156 14.3442L9.66723 14.9059L5.76723 12.8111V8.6534L9.66721 6.55865L13.4431 8.58277C13.2574 8.68267 13.0779 8.78846 12.9046 8.90017C12.7384 9.00732 12.5797 9.12515 12.4287 9.25362ZM1.62006 6.36678L1.5673 6.39506V6.45493V15.0096V15.0696L1.62017 15.0978L7.53084 18.2561C7.39574 18.388 7.27198 18.5093 7.15955 18.62C7.03136 18.7462 6.91893 18.904 6.82131 19.0915L0.433984 15.6724V5.79214L5.0478 3.32042L9.66717 0.845715L18.9003 5.79214V8.41167C18.5373 8.23521 18.1595 8.10006 17.767 8.00629V6.45493V6.39506L17.7143 6.36678L9.7144 2.07967L9.66717 2.05436L9.61993 2.07967L1.62006 6.36678ZM16.3326 9.58226V9.58227H16.3337C16.8702 9.58227 17.3748 9.6777 17.8485 9.86803C18.3238 10.059 18.7367 10.3194 19.0882 10.649C19.4397 10.9785 19.7205 11.3684 19.9305 11.8194C20.1395 12.2681 20.2404 12.7382 20.2337 13.2309V13.2323C20.2337 13.7393 20.1323 14.2099 19.9304 14.6453C19.7274 15.0831 19.4501 15.47 19.0979 15.8065C18.7467 16.1421 18.3308 16.4055 17.849 16.5963C17.3679 16.7869 16.863 16.8823 16.3337 16.8823C15.9266 16.8823 15.5299 16.825 15.1434 16.7106C14.7573 16.5963 14.4022 16.4282 14.0777 16.2064L14.0115 16.1611L13.9529 16.2159L9.40094 20.4737L9.40086 20.4738C9.28741 20.5801 9.15561 20.6323 9.00051 20.6323C8.84541 20.6323 8.7136 20.5801 8.60016 20.4738C8.48684 20.3675 8.43385 20.2468 8.43385 20.1073C8.43385 19.9677 8.48684 19.847 8.60016 19.7408L8.60025 19.7407L13.1418 15.4731L13.2082 15.4107L13.1523 15.3388C12.9161 15.0351 12.7374 14.7033 12.6161 14.3429C12.4945 13.9821 12.4338 13.612 12.4338 13.2323C12.4338 12.7319 12.535 12.2611 12.7372 11.8188C12.9402 11.3747 13.2173 10.9883 13.5688 10.6587C13.9206 10.3289 14.3339 10.0651 14.8096 9.86759C15.2825 9.67125 15.7898 9.5759 16.3326 9.58226ZM16.332 15.8323L16.332 15.8323H16.3337C16.7138 15.8323 17.0705 15.765 17.4027 15.6296C17.7328 15.495 18.0276 15.3097 18.2865 15.0738C18.5464 14.8368 18.7458 14.5618 18.8835 14.2491C19.0212 13.9367 19.0931 13.598 19.1003 13.2342H19.1003V13.2323C19.1003 12.8734 19.028 12.5367 18.8827 12.2234C18.7385 11.9125 18.5403 11.6355 18.2885 11.3927C18.0358 11.149 17.7431 10.9628 17.4115 10.8343C17.0801 10.706 16.7211 10.639 16.3355 10.6323V10.6323H16.3337C15.9536 10.6323 15.597 10.6996 15.2647 10.835C14.9346 10.9695 14.6398 11.1548 14.381 11.3908C14.121 11.6277 13.9217 11.9027 13.7839 12.2154C13.6463 12.5278 13.5743 12.8665 13.5671 13.2303H13.5671V13.2323C13.5671 13.5912 13.6394 13.9279 13.7847 14.2411C13.9289 14.5521 14.1272 14.8291 14.3789 15.0718C14.6317 15.3156 14.9243 15.5018 15.256 15.6302C15.5874 15.7585 15.9463 15.8256 16.332 15.8323Z" fill="white" stroke="#5D55FF" stroke-width="0.2"/>
</svg>
