<svg width="21" height="21" viewBox="0 0 21 21" fill="none" xmlns="http://www.w3.org/2000/svg">
<path d="M10.334 17.1394C8.94952 17.1394 7.59614 16.7289 6.44499 15.9597C5.29385 15.1905 4.39664 14.0973 3.86683 12.8182C3.33702 11.5391 3.19839 10.1317 3.46849 8.7738C3.73859 7.41594 4.40527 6.16866 5.38424 5.18969C6.36321 4.21072 7.61049 3.54404 8.96835 3.27394C10.3262 3.00384 11.7337 3.14247 13.0128 3.67228C14.2918 4.20209 15.3851 5.0993 16.1543 6.25044C16.9234 7.40159 17.334 8.75497 17.334 10.1394C17.334 11.9959 16.5965 13.7764 15.2837 15.0892C13.971 16.4019 12.1905 17.1394 10.334 17.1394ZM10.334 4.13944C9.1473 4.13944 7.98726 4.49133 7.00056 5.15062C6.01387 5.80991 5.24484 6.74698 4.79071 7.84334C4.33658 8.93969 4.21776 10.1461 4.44928 11.31C4.68079 12.4739 5.25223 13.543 6.09135 14.3821C6.93046 15.2212 7.99956 15.7926 9.16344 16.0241C10.3273 16.2557 11.5337 16.1368 12.6301 15.6827C13.7264 15.2286 14.6635 14.4595 15.3228 13.4729C15.9821 12.4862 16.334 11.3261 16.334 10.1394C16.334 8.54814 15.7018 7.02201 14.5766 5.8968C13.4514 4.77158 11.9253 4.13944 10.334 4.13944Z" fill="white"/>
<path d="M11.7297 13.1394L9.33398 10.5308V6.13943H10.1911V10.1434L12.334 12.4814L11.7297 13.1394Z" fill="white"/>
</svg>
